<?xml version="1.0" standalone="no"?>
<!DOCTYPE svg PUBLIC "-//W3C//DTD SVG 20010904//EN"
 "http://www.w3.org/TR/2001/REC-SVG-20010904/DTD/svg10.dtd">
<svg version="1.0" xmlns="http://www.w3.org/2000/svg"
 width="816.000000pt" height="816.000000pt" viewBox="0 0 816.000000 816.000000"
 preserveAspectRatio="xMidYMid meet">
<metadata>
Created by potrace 1.11, written by Peter Selinger 2001-2013
</metadata>
<g transform="translate(0.000000,816.000000) scale(0.100000,-0.100000)"
fill="#000000" stroke="none">
<path d="M640 4080 l0 -4080 915 0 915 0 -98 98 c-253 251 -440 591 -542 988
-31 120 -60 272 -60 318 0 25 3 28 23 22 107 -31 214 -40 492 -40 293 0 372 5
749 50 206 25 503 71 519 81 5 3 -18 20 -51 38 -205 109 -357 301 -424 532
-19 66 -23 102 -23 233 0 131 4 167 23 233 45 156 134 301 250 408 163 150
367 229 592 229 225 0 429 -79 592 -229 122 -113 219 -277 255 -432 9 -41 26
-84 37 -97 44 -50 174 -64 357 -38 145 21 209 2 224 -64 8 -36 -26 -138 -69
-204 -102 -159 -338 -277 -619 -311 -49 -5 -61 -11 -81 -38 -43 -58 -66 -114
-66 -164 0 -44 5 -54 66 -128 289 -353 416 -678 384 -988 -17 -168 -73 -302
-183 -438 l-48 -59 1361 0 c748 0 1360 2 1360 5 0 3 -103 175 -228 383 -281
463 -2491 4111 -2505 4133 -9 15 577 789 2571 3394 l184 240 -1223 3 c-970 2
-1226 -1 -1235 -10 -7 -7 -335 -483 -729 -1058 -395 -575 -791 -1151 -879
-1280 -89 -129 -311 -462 -494 -739 l-332 -503 0 1796 0 1796 -990 0 -990 0 0
-4080z"/>
</g>
</svg>
