<svg width="86" height="102" viewBox="0 0 86 102" fill="none" xmlns="http://www.w3.org/2000/svg">
<g clip-path="url(#clip0)">
<rect width="4559" height="3159" transform="translate(-1771 -1289)" fill="white"/>
<path d="M34.8047 64.2656L24.6797 75.375V102.375H0V0H24.6797V45.1406L33.2578 32.1328L55.3359 0H85.8516L51.2578 45.2812L85.8516 102.375H56.6016L34.8047 64.2656Z" fill="black"/>
<path d="M57.2656 102.375H16.2656L18.2656 63.375L40.2656 51.375L57.2656 102.375Z" fill="black"/>
<path d="M51 102.5C45.6667 104.833 33 108.3 25 103.5C17 98.6999 14.3333 88.4999 14 83.9999C19.2 85.5999 31.1667 83.9999 36.5 82.9999C36.8333 78.4999 39.8 72.0999 49 82.4999C58.2 92.8999 54.1667 100.167 51 102.5Z" fill="white"/>
<path d="M58.5 75.5C56.5 78.7 51.3333 79.5 49 79.5L45.5 76V70.5H51.5C51.5 71.3333 52.5 72.8 56.5 72C60.5 71.2 59.5 74 58.5 75.5Z" fill="white"/>
<path d="M50 79.5C49.6 79.9 48.5 81.4999 49 82.4999L47.5 82L47 81L48.5 79L49.5 78.5C49.8333 78.6667 50.4 79.1 50 79.5Z" fill="white"/>
<path d="M52 73C52 79.0751 47.0751 84 41 84C34.9249 84 30 79.0751 30 73C30 66.9249 34.9249 62 41 62C47.0751 62 52 66.9249 52 73Z" fill="white"/>
</g>
<defs>
<clipPath id="clip0">
<rect width="4559" height="3159" fill="white" transform="translate(-1771 -1289)"/>
</clipPath>
</defs>
</svg>
